<?xml version="1.0" encoding="UTF-8" standalone="no"?>
<!-- Created with Inkscape (http://www.inkscape.org/) -->

<svg
   xmlns:dc="http://purl.org/dc/elements/1.1/"
   xmlns:cc="http://creativecommons.org/ns#"
   xmlns:rdf="http://www.w3.org/1999/02/22-rdf-syntax-ns#"
   xmlns:svg="http://www.w3.org/2000/svg"
   xmlns="http://www.w3.org/2000/svg"
   xmlns:xlink="http://www.w3.org/1999/xlink"
   xmlns:sodipodi="http://sodipodi.sourceforge.net/DTD/sodipodi-0.dtd"
   xmlns:inkscape="http://www.inkscape.org/namespaces/inkscape"
   width="500px"
   height="500px"
   viewBox="0 0 500 500"
   version="1.1"
   id="SVGRoot"
   inkscape:version="0.92.4 (5da689c313, 2019-01-14)"
   sodipodi:docname="cloudy_sunny.svg">
  <defs
     id="defs26">
    <linearGradient
       inkscape:collect="always"
       id="linearGradient857">
      <stop
         style="stop-color:#fdff91;stop-opacity:1"
         offset="0"
         id="stop853" />
      <stop
         style="stop-color:#fec70d;stop-opacity:1"
         offset="1"
         id="stop855" />
    </linearGradient>
    <linearGradient
       inkscape:collect="always"
       id="linearGradient869">
      <stop
         style="stop-color:#9ed3f6;stop-opacity:1"
         offset="0"
         id="stop865" />
      <stop
         style="stop-color:#fefcff;stop-opacity:1"
         offset="1"
         id="stop867" />
    </linearGradient>
    <linearGradient
       inkscape:collect="always"
       xlink:href="#linearGradient869"
       id="linearGradient871"
       x1="245.11719"
       y1="449.21875"
       x2="161.99503"
       y2="262.43481"
       gradientUnits="userSpaceOnUse" />
    <radialGradient
       inkscape:collect="always"
       xlink:href="#linearGradient857"
       id="radialGradient859"
       cx="175.32422"
       cy="192.10547"
       fx="175.32422"
       fy="192.10547"
       r="119.14062"
       gradientUnits="userSpaceOnUse" />
  </defs>
  <sodipodi:namedview
     id="base"
     pagecolor="#ffffff"
     bordercolor="#666666"
     borderopacity="1.0"
     inkscape:pageopacity="0.0"
     inkscape:pageshadow="2"
     inkscape:zoom="1.024"
     inkscape:cx="98.743132"
     inkscape:cy="268.47158"
     inkscape:document-units="px"
     inkscape:current-layer="layer3"
     showgrid="false"
     inkscape:window-width="1366"
     inkscape:window-height="705"
     inkscape:window-x="-8"
     inkscape:window-y="-8"
     inkscape:window-maximized="1" />
  <metadata
     id="metadata29">
    <rdf:RDF>
      <cc:Work
         rdf:about="">
        <dc:format>image/svg+xml</dc:format>
        <dc:type
           rdf:resource="http://purl.org/dc/dcmitype/StillImage" />
        <dc:title />
      </cc:Work>
    </rdf:RDF>
  </metadata>
  <g
     inkscape:groupmode="layer"
     id="layer3"
     inkscape:label="Layer 3">
    <circle
       style="display:inline;opacity:1;fill:#feff2a;fill-opacity:1;stroke:none;stroke-width:2.02974629;stroke-miterlimit:4;stroke-dasharray:none;stroke-opacity:1"
       id="path845"
       cx="175.32422"
       cy="192.10547"
       r="56.640625" />
  </g>
  <g
     inkscape:groupmode="layer"
     id="layer2"
     inkscape:label="Layer 2"
     class="sun"
     style="display:inline">
    <g
       style="display:inline;fill:url(#radialGradient859);fill-opacity:1;stroke:none;stroke-width:1.88976383;stroke-miterlimit:4;stroke-dasharray:none;stroke-opacity:1"
       id="g861">
      <path
         style="opacity:1;fill:url(#radialGradient859);fill-opacity:1;stroke:none;stroke-width:1.88976383;stroke-miterlimit:4;stroke-dasharray:none;stroke-opacity:1"
         d="m 170.46875,72.964844 -14.15234,50.085936 -37.90821,-36.214842 9.33594,51.166012 -50.124999,-16.44336 30.978519,42.11329 -52.414066,6.57812 46.482426,24.72266 -44.32227,28.30078 52.78125,2.42968 -27.451172,44.41993 48.625002,-20.3418 -5.14258,51.73828 34.83789,-39.08398 18.18555,48.81054 14.15234,-50.08593 37.90625,36.21484 -9.33594,-51.16602 50.12696,16.44532 -30.97852,-42.11524 52.41406,-6.57812 -46.48242,-24.72071 44.32227,-28.30273 -52.78321,-2.42969 27.45118,-44.41797 -48.625,20.33985 5.14453,-51.738284 -34.83985,39.083984 z m 4.85547,54.568356 c 35.66225,8e-5 64.57219,28.91002 64.57226,64.57227 -8e-5,35.66224 -28.91002,64.57218 -64.57226,64.57226 -35.66225,-7e-5 -64.57219,-28.91001 -64.57227,-64.57226 7e-5,-35.66225 28.91002,-64.5722 64.57227,-64.57227 z"
         id="path1383"
         inkscape:connector-curvature="0"
         sodipodi:nodetypes="cccccccccccccccccccccccccccccccccc" />
    </g>
  </g>
  <g
     inkscape:label="Layer 1"
     inkscape:groupmode="layer"
     id="layer1"
     style="display:inline"
     class="cloud">
    <path
       style="opacity:1;fill:url(#linearGradient871);fill-opacity:1;stroke:none;stroke-width:1.88976383;stroke-miterlimit:4;stroke-dasharray:none;stroke-opacity:1"
       d="m 275.8789,166.99218 a 124.51172,124.51172 0 0 0 -107.54688,62.00783 94.726562,94.726562 0 0 0 -15.98828,-1.46094 94.726562,94.726562 0 0 0 -94.726553,94.72655 94.726562,94.726562 0 0 0 94.726553,94.72656 94.726562,94.726562 0 0 0 57.92969,-19.84375 124.51172,124.51172 0 0 0 65.60547,18.86719 124.51172,124.51172 0 0 0 50.16992,-10.7246 80.078125,80.078125 0 0 0 36.25586,8.77148 80.078125,80.078125 0 0 0 80.07813,-80.07813 80.078125,80.078125 0 0 0 -45.73047,-72.22852 124.51172,124.51172 0 0 0 -120.77344,-94.76367 z"
       id="path39"
       inkscape:connector-curvature="0" />
  </g>
  <style
     id="style848">
     .sun{
        animation: sun_spin 10s linear infinite;
     }
     @keyframes sun_spin {
        0%{transform: rotate(0deg) scale(1); transform-origin: 35% 38.5%;}
        12.5%{transform: rotate(45deg) scale(1.1); transform-origin: 35% 38.5%;}
        25%{transform: rotate(90deg) scale(1); transform-origin: 35% 38.5%;}
        37.5%{transform: rotate(135deg) scale(1.1); transform-origin: 35% 38.5%;}
        50%{transform: rotate(180deg) scale(1); transform-origin: 35% 38.5%;}
        62.5%{transform: rotate(225deg) scale(1.1); transform-origin: 35% 38.5%;}
        75%{transform: rotate(270deg) scale(1); transform-origin: 35% 38.5%;}
        87.5%{transform: rotate(315deg) scale(1.1); transform-origin: 35% 38.5%;}
        100%{transform: rotate(360deg) scale(1); transform-origin: 35% 38.5%;}
     }
     .cloud{
        animation: cloud_move 7s ease-in-out infinite;
     }
     @keyframes cloud_move{
        0%{transform: translateX(20px);}
        50%{transform: translateX(-20px);}
        100%{transform: translateX(20px);}
     }
  </style>
</svg>
