<?xml version="1.0" encoding="UTF-8" standalone="no"?>
<!-- Created with Inkscape (http://www.inkscape.org/) -->

<svg
   xmlns:dc="http://purl.org/dc/elements/1.1/"
   xmlns:cc="http://creativecommons.org/ns#"
   xmlns:rdf="http://www.w3.org/1999/02/22-rdf-syntax-ns#"
   xmlns:svg="http://www.w3.org/2000/svg"
   xmlns="http://www.w3.org/2000/svg"
   xmlns:xlink="http://www.w3.org/1999/xlink"
   xmlns:sodipodi="http://sodipodi.sourceforge.net/DTD/sodipodi-0.dtd"
   xmlns:inkscape="http://www.inkscape.org/namespaces/inkscape"
   width="500px"
   height="500px"
   viewBox="0 0 500 500"
   version="1.1"
   id="SVGRoot"
   inkscape:version="0.92.4 (5da689c313, 2019-01-14)"
   sodipodi:docname="cloudy_heavy.svg">
  <defs
     id="defs26">
    <linearGradient
       inkscape:collect="always"
       id="linearGradient869">
      <stop
         style="stop-color:#9ed3f6;stop-opacity:1"
         offset="0"
         id="stop865" />
      <stop
         style="stop-color:#fefcff;stop-opacity:1"
         offset="1"
         id="stop867" />
    </linearGradient>
    <linearGradient
       inkscape:collect="always"
       xlink:href="#linearGradient869"
       id="linearGradient871"
       x1="245.11719"
       y1="449.21875"
       x2="161.99503"
       y2="262.43481"
       gradientUnits="userSpaceOnUse"
       gradientTransform="translate(6.835937,-13.671875)" />
    <linearGradient
       inkscape:collect="always"
       xlink:href="#linearGradient869"
       id="linearGradient835"
       gradientUnits="userSpaceOnUse"
       x1="245.11719"
       y1="449.21875"
       x2="161.99503"
       y2="262.43481"
       gradientTransform="matrix(0.66161556,0,0,0.63936145,28.095978,-8.17692)" />
  </defs>
  <sodipodi:namedview
     id="base"
     pagecolor="#ffffff"
     bordercolor="#666666"
     borderopacity="1.0"
     inkscape:pageopacity="0.0"
     inkscape:pageshadow="2"
     inkscape:zoom="1.024"
     inkscape:cx="81.362721"
     inkscape:cy="268.47158"
     inkscape:document-units="px"
     inkscape:current-layer="layer5"
     showgrid="false"
     inkscape:window-width="1366"
     inkscape:window-height="705"
     inkscape:window-x="-8"
     inkscape:window-y="-8"
     inkscape:window-maximized="1" />
  <metadata
     id="metadata29">
    <rdf:RDF>
      <cc:Work
         rdf:about="">
        <dc:format>image/svg+xml</dc:format>
        <dc:type
           rdf:resource="http://purl.org/dc/dcmitype/StillImage" />
        <dc:title />
      </cc:Work>
    </rdf:RDF>
  </metadata>
  <g
     inkscape:label="Layer 1"
     inkscape:groupmode="layer"
     id="layer1"
     style="display:inline"
     class="cloud">
    <path
       style="opacity:1;fill:url(#linearGradient871);fill-opacity:1;stroke:none;stroke-width:1.88976383;stroke-miterlimit:4;stroke-dasharray:none;stroke-opacity:1"
       d="m 282.71483,153.3203 a 124.51172,124.51172 0 0 0 -107.54688,62.00783 94.726562,94.726562 0 0 0 -15.98828,-1.46094 94.726562,94.726562 0 0 0 -94.726545,94.72656 94.726562,94.726562 0 0 0 94.726545,94.72656 94.726562,94.726562 0 0 0 57.92968,-19.84375 124.51172,124.51172 0 0 0 65.60548,18.86719 124.51172,124.51172 0 0 0 50.16991,-10.72461 80.078125,80.078125 0 0 0 36.25586,8.77148 80.078125,80.078125 0 0 0 80.07813,-80.07812 80.078125,80.078125 0 0 0 -45.73047,-72.22853 124.51172,124.51172 0 0 0 -120.77343,-94.76367 z"
       id="path39"
       inkscape:connector-curvature="0" />
  </g>
  <g
     inkscape:groupmode="layer"
     id="layer5"
     inkscape:label="Layer 2">
    <path
       inkscape:connector-curvature="0"
       id="path833"
       d="m 210.62174,98.59144 a 82.378891,79.607993 0 0 0 -71.15469,39.64542 62.672567,60.564512 0 0 0 -10.57809,-0.93407 62.672567,60.564512 0 0 0 -62.672554,60.5645 62.672567,60.564512 0 0 0 62.672554,60.56451 62.672567,60.564512 0 0 0 38.32718,-12.68732 82.378891,79.607993 0 0 0 43.4056,12.06295 82.378891,79.607993 0 0 0 33.1932,-6.8569 52.980933,51.198866 0 0 0 23.98745,5.60815 52.980933,51.198866 0 0 0 52.98093,-51.19887 52.980933,51.198866 0 0 0 -30.25599,-46.18013 82.378891,79.607993 0 0 0 -79.90559,-60.58824 z"
       style="display:inline;opacity:1;fill:url(#linearGradient835);fill-opacity:1;stroke:none;stroke-width:1.22908974;stroke-miterlimit:4;stroke-dasharray:none;stroke-opacity:1" />
  </g>
  <style
     id="style848">
     .cloud{
        animation: cloud_move 10s ease-in-out infinite;
     }
     @keyframes cloud_move{
        0%{transform: translateX(20px);}
        50%{transform: translateX(-20px);}
        100%{transform: translateX(20px);}
     }
  </style>
</svg>
